# xmcd
#
# Track frame offsets:
#	150
#	10206
#	19946
#	37266
#	53260
#	65222
#	79785
#	94217
#	108051
#	119128
#	128759
#
# Disc length: 1906 seconds
#
# Revision: 1
# Processed by: cddbd v1.4PL0 Copyright (c) Steve Scherf et al.
# Submitted via: CDmax 1.9
#
DISCID=9107700b
DTITLE=Faces Made For Radio - Ride
DYEAR=1900
DGENRE=Bluegrass
TTITLE0=Voices That I Hear
TTITLE1=Train Wreck on Possum Run
TTITLE2=He's Movin' In
TTITLE3=Lake in the Hills
TTITLE4=Streets of Bakersfield
TTITLE5=Measure of a Man
TTITLE6=Southern Flavor
TTITLE7=Just Another Lie
TTITLE8=In My Dreams
TTITLE9=Please Don't Leave
TTITLE10=Ride
EXTD=Ohio Bluegrass Band\nSlogan: We Sound Better Than We Look\nRaindrop Recor
EXTD=ding Studio\nAshland OH 44805\n(419) 289-8955
EXTT0=
EXTT1=
EXTT2=
EXTT3=
EXTT4=
EXTT5=
EXTT6=
EXTT7=
EXTT8=
EXTT9=
EXTT10=
PLAYORDER=
